<svg width="46" height="20" viewBox="0 0 46 20" fill="none" xmlns="http://www.w3.org/2000/svg">
<path d="M0.194847 7.95612C0.154339 7.69958 0.268485 7.46074 0.537153 7.24066C0.806499 7.02017 1.10311 6.88406 1.42751 6.83283C1.84132 6.76749 2.11062 6.87445 2.23448 7.15268L6.23753 15.8403L7.35251 6.34454C7.38462 6.04169 7.608 5.85693 8.02167 5.79161C8.33479 5.74217 8.65702 5.78338 8.98706 5.91442C9.31718 6.04589 9.50223 6.23452 9.54104 6.48035C9.54461 6.50292 9.54217 6.5607 9.53355 6.65356L7.97821 17.7146C7.94864 17.9602 7.80954 18.1688 7.56125 18.3395C7.31297 18.5103 7.02088 18.6224 6.68577 18.6753C5.9137 18.7972 5.40519 18.6254 5.15948 18.1597L0.254773 8.11868C0.21796 8.033 0.198556 7.97867 0.194992 7.9561L0.194847 7.95612ZM11.1557 14.5307L10.5199 10.5043C10.4934 10.3364 10.5778 10.1626 10.773 9.98291C10.9683 9.80319 11.2111 9.6901 11.5021 9.64415C11.7819 9.59997 12.0421 9.63304 12.2831 9.74388C12.5242 9.8547 12.6579 9.99345 12.6842 10.1601L13.3183 14.1759C13.38 14.5666 13.5804 14.8923 13.9198 15.1527C14.2594 15.4135 14.63 15.5121 15.033 15.4485C15.4354 15.385 15.7554 15.1772 15.992 14.8255C16.2289 14.4741 16.3162 14.1028 16.2546 13.7123L15.6179 9.68015C15.5898 9.50218 15.6741 9.32825 15.8712 9.15996C16.0682 8.99152 16.3121 8.88466 16.6031 8.83871C16.9162 8.78927 17.1846 8.81584 17.4069 8.91792C17.6292 9.02015 17.7547 9.16138 17.7829 9.34007L18.4213 13.3829C18.5643 14.289 18.3315 15.1402 17.7235 15.9348C17.1153 16.7307 16.319 17.2057 15.3344 17.3611C14.3505 17.5165 13.4437 17.3104 12.6142 16.7416C11.7853 16.1738 11.2987 15.4366 11.1557 14.5307ZM19.7245 13.1436L19.4993 11.7169C19.3545 10.8002 19.5884 9.95516 20.2002 9.18186C20.8116 8.40938 21.6265 7.94229 22.6444 7.78156C23.595 7.63146 24.4565 7.80374 25.2284 8.2976C25.9999 8.7921 26.4577 9.49379 26.6015 10.4043C26.654 10.7367 26.6554 11.0169 26.6053 11.2467C26.5558 11.4757 26.4509 11.6482 26.2914 11.7643C26.1318 11.8804 25.9814 11.9609 25.8394 12.0059C25.6978 12.0515 25.509 12.0922 25.2745 12.1292L21.868 12.6671L21.9077 12.9188C21.9837 13.3996 22.2242 13.7601 22.6287 14C23.0338 14.2396 23.5327 14.3131 24.1255 14.2195C24.5506 14.1524 24.9532 13.98 25.3334 13.7021C25.7137 13.4242 25.9652 13.2756 26.0885 13.2562C26.3236 13.219 26.5364 13.2972 26.7273 13.49C26.9183 13.6835 27.03 13.8809 27.0618 14.082C27.1112 14.3951 26.8778 14.7507 26.3616 15.1473C25.845 15.544 25.1672 15.8085 24.3284 15.941C23.1314 16.13 22.1053 15.9683 21.2505 15.4556C20.3957 14.943 19.887 14.1722 19.7245 13.1436ZM21.6667 11.3921L24.1163 11.0053C24.2954 10.977 24.4163 10.9284 24.4804 10.8598C24.5441 10.7906 24.5626 10.673 24.5361 10.5056C24.4784 10.14 24.289 9.8647 23.9673 9.6803C23.6455 9.49532 23.2777 9.4358 22.8644 9.50105C22.4727 9.56289 22.1489 9.72866 21.8941 9.99951C21.6384 10.2697 21.5397 10.5879 21.5974 10.9535L21.6667 11.3921ZM27.5351 11.9618C27.4715 11.5588 27.5115 11.2692 27.6555 11.0918C27.7995 10.9144 28.0673 10.7944 28.4589 10.7326C29.1413 10.6248 29.5408 10.7969 29.6579 11.2483C29.8916 12.4384 30.5625 12.9454 31.6697 12.7705C32.8556 12.5833 33.3468 11.8464 33.1437 10.5601L32.1 3.95L30.3886 4.22023C30.176 4.25379 29.9932 4.18538 29.84 4.01484C29.6869 3.8443 29.5895 3.62463 29.5471 3.35608C29.5065 3.09897 29.5305 2.86872 29.6183 2.66593C29.7068 2.46258 29.8628 2.34348 30.0868 2.30811L33.0229 1.8445C33.2801 1.80388 33.5135 1.83019 33.7233 1.92283C33.9328 2.01596 34.0543 2.16879 34.0879 2.38135L35.3249 10.2157C35.5333 11.5352 35.3315 12.5619 34.719 13.2947C34.1066 14.0274 33.2248 14.4848 32.0723 14.6667C30.8864 14.854 29.8744 14.7073 29.0362 14.2261C28.1981 13.7457 27.6975 12.9905 27.5351 11.9618ZM36.9703 11.813C36.9297 11.5559 36.9864 11.2804 37.1403 10.9862C37.2945 10.693 37.4948 10.5264 37.7411 10.4876C37.8864 10.4646 38.0624 10.508 38.2692 10.6185C38.4798 10.7319 38.6835 10.8579 38.8791 10.9955C39.0788 11.1366 39.3517 11.2516 39.6986 11.3393C40.0452 11.4277 40.4139 11.4407 40.8055 11.3789C41.3425 11.2941 41.7702 11.1009 42.0898 10.7985C42.4086 10.4955 42.5303 10.1039 42.4544 9.62276C42.4014 9.28765 42.2558 9.00426 42.0189 8.77162C41.7819 8.54032 41.4902 8.36275 41.144 8.23945C40.7734 8.109 40.3968 7.99624 40.0155 7.90157C39.5992 7.79656 39.1873 7.67535 38.7805 7.53823C38.3626 7.39734 37.9741 7.22704 37.6155 7.02517C37.2571 6.82403 36.947 6.52952 36.6851 6.14037C36.4228 5.75201 36.2495 5.28925 36.1647 4.7523C36.0698 4.15096 36.1064 3.60122 36.2739 3.10332C36.4421 2.60577 36.7073 2.19716 37.0693 1.8781C37.4282 1.56185 37.8342 1.30351 38.2727 1.11238C38.7128 0.92054 39.1895 0.784476 39.7044 0.703164C39.9954 0.657219 40.3061 0.628926 40.6369 0.617326C40.9677 0.606906 41.3218 0.618769 41.7001 0.652754C42.0776 0.687623 42.397 0.784441 42.6573 0.943105C42.9176 1.10249 43.0686 1.31371 43.1103 1.57777C43.1496 1.82693 43.1118 2.09718 42.9972 2.38755C42.8827 2.6785 42.6912 2.84473 42.4227 2.88713C42.322 2.90303 42.0312 2.84068 41.5499 2.69824C41.0688 2.55695 40.5546 2.52869 40.0064 2.61526C39.4027 2.71058 38.9533 2.89914 38.6595 3.18073C38.3657 3.46232 38.2505 3.8044 38.314 4.20664C38.3653 4.53118 38.5445 4.79252 38.8508 4.99033C39.1573 5.18869 39.5212 5.33174 39.9417 5.42001C40.3629 5.50818 40.8236 5.63075 41.3239 5.78622C41.8241 5.94243 42.294 6.12316 42.7339 6.3288C43.1734 6.53463 43.5678 6.87085 43.9166 7.33718C44.2654 7.80353 44.4933 8.37809 44.601 9.06031C44.7822 10.2077 44.5559 11.1506 43.9216 11.889C43.2871 12.6282 42.3714 13.092 41.1742 13.281C40.1116 13.4488 39.1656 13.3745 38.3365 13.0583C37.5064 12.7427 37.0515 12.3274 36.9703 11.813Z" fill="#54A1FF"/>
</svg>
