<svg width="19" height="18" viewBox="0 0 19 18" fill="none" xmlns="http://www.w3.org/2000/svg">
<path d="M16.9152 11.427L12.7813 10.9035L13.581 8.22179L17.262 8.68787C18.7105 8.87126 18.9948 6.62561 17.5464 6.44221L14.2366 6.02314L15.3284 2.36182C15.7455 0.962898 13.5765 0.3159 13.1592 1.7151L11.9605 5.73496L9.25182 5.392L10.3436 1.73067C10.7608 0.331753 8.59208 -0.315357 8.17442 1.08396L6.97577 5.10382L2.47055 4.53338C1.0221 4.34999 0.737767 6.59564 2.18621 6.77904L6.32016 7.30246L5.52047 9.98422L1.8394 9.51814C0.390955 9.33474 0.106622 11.5804 1.55507 11.7638L4.86486 12.1829L3.77307 15.8442C3.36022 17.2283 5.52437 17.892 5.94226 16.4909L7.1409 12.471L9.84961 12.814L8.75781 16.4753C8.34497 17.8594 10.5091 18.5232 10.927 17.122L12.1257 13.1022L16.6309 13.6726C18.0793 13.856 18.3637 11.6104 16.9152 11.427ZM10.5052 10.6154L7.79667 10.2724L8.59635 7.59066L11.3051 7.93362L10.5052 10.6154Z" fill="#F7F3F1"/>
</svg>
