<svg width="9" height="15" viewBox="0 0 9 15" fill="none" xmlns="http://www.w3.org/2000/svg">
<path d="M6.17487 14.4896L1.30196 13.8726C1.14726 13.8531 1.00669 13.7728 0.911152 13.6496C0.815617 13.5264 0.77295 13.3702 0.792536 13.2155L2.36536 0.793475C2.38494 0.638782 2.46518 0.498207 2.58841 0.402672C2.71165 0.307137 2.86779 0.264469 3.02248 0.284056L7.8954 0.901042C7.97199 0.91074 8.04593 0.93543 8.11298 0.973702C8.18004 1.01197 8.2389 1.06308 8.2862 1.1241C8.3335 1.18512 8.36833 1.25486 8.38868 1.32933C8.40903 1.40381 8.41451 1.48157 8.40482 1.55816L6.83199 13.9802C6.81233 14.1349 6.73208 14.2754 6.60886 14.3709C6.48565 14.4664 6.32955 14.5091 6.17487 14.4896Z" fill="#8EE6F3"/>
</svg>
