<svg width="21" height="26" viewBox="0 0 21 26" fill="none" xmlns="http://www.w3.org/2000/svg">
<path d="M2.09854 20.9749L2.77333 21.6786C3.84317 22.7945 5.26361 23.5092 6.79719 23.7034L17.4703 25.0548C18.4821 25.1829 19.4037 24.442 19.4849 23.4135C19.5611 22.4503 20.7124 13.7358 20.8369 12.7527C20.9613 11.7695 20.2652 10.8714 19.2819 10.7469L12.0473 9.80865L13.1991 7.82221C13.7896 6.80386 14.1372 5.66304 14.215 4.48846C14.2928 3.31387 14.0986 2.13718 13.6476 1.04985C13.1355 -0.0149595 11.5434 0.151417 11.3601 1.35741C11.1218 3.23939 10.2046 4.96961 8.78078 6.22311L3.50463 10.8608L1.82218 10.6478L0.53963 20.7773L2.09854 20.9749Z" fill="#FFD36C"/>
</svg>
