<svg width="60" height="54" viewBox="0 0 60 54" fill="none" xmlns="http://www.w3.org/2000/svg">
<path d="M46.2312 17.0876C47.9412 9.72517 47.5403 3.4841 43.5229 1.5065C39.4383 -0.695597 34.2285 2.33232 29.0176 7.80728C23.5426 2.59634 18.0665 -0.167721 14.1367 2.23228C10.2069 4.63229 10.316 10.7161 12.4674 17.9009C5.28264 20.0523 0.207309 23.5294 0.294876 27.907C0.449663 32.5091 5.76851 35.5649 13.1309 37.2749C11.4209 44.6373 11.8219 50.8783 15.8392 52.8559C19.9238 55.058 25.1336 52.0301 30.3446 46.5551C35.8195 51.7661 41.2956 54.5301 45.2254 52.1301C49.1552 49.7301 49.0461 43.6463 46.8947 36.4615C54.0795 34.3101 59.1548 30.833 59.0673 26.4554C58.9126 21.8533 53.5937 18.7974 46.2312 17.0876ZM41.95 4.42402C43.7005 5.36774 44.3045 9.83551 42.7747 16.1653C40.7095 15.8051 38.4199 15.512 35.973 15.5109C34.6943 13.6918 33.1911 11.94 31.688 10.1882C36.1352 5.43137 39.9749 3.54757 41.95 4.42402ZM34.4812 35.0407C31.1362 35.3084 28.4647 35.3745 25.277 35.3503C23.5049 32.7004 22.0917 30.4324 20.477 27.4907C21.8255 24.6404 23.0838 22.3063 24.8812 19.3216C28.2263 19.054 30.8978 18.9879 34.0854 19.012C35.8576 21.6619 37.2707 23.9299 38.8854 26.8716C37.6042 29.9464 36.3459 32.2805 34.4812 35.0407ZM40.9037 31.1603C41.3971 31.9912 41.7332 33.1138 42.0022 34.0119C41.1041 34.2809 40.1387 34.3253 39.0161 34.6615L40.9037 31.1603ZM31.9873 38.9681C31.2909 39.9107 30.7517 40.5613 30.2799 41.4366C29.562 40.673 28.8439 39.9093 28.3505 39.0784C29.9895 38.8323 30.0567 39.0568 31.9873 38.9681ZM20.7648 34.9888C19.7322 34.8087 18.7668 34.853 17.7343 34.673C17.9815 33.8649 18.3862 32.7651 18.8582 31.8899C19.5535 33.3942 19.7779 33.327 20.7648 34.9888ZM18.4586 23.2019C17.9652 22.371 17.629 21.2484 17.3601 20.3503C18.2582 20.0813 19.2235 20.0369 20.3461 19.7008L18.4586 23.2019ZM27.375 15.3941C28.0714 14.4516 28.6106 13.8009 29.0823 12.9256C29.8002 13.6892 30.5183 14.4529 31.0117 15.2838C29.3728 15.5299 29.3055 15.3054 27.375 15.3941ZM38.5975 19.3734C39.63 19.5535 40.5954 19.5092 41.628 19.6892C41.3807 20.4973 40.976 21.5971 40.504 22.4723C39.8088 20.968 39.5843 21.0352 38.5975 19.3734ZM16.2678 5.26395C17.9296 4.27711 22.1042 5.96284 26.8611 10.4103C25.401 12.0708 24.2328 13.8885 22.84 15.7736C20.4603 15.9969 18.3723 16.3774 16.0599 16.8252C14.2446 10.7629 14.3815 6.31802 16.2678 5.26395ZM3.99897 28.0209C3.91008 26.0903 7.48093 23.3085 13.7678 21.426C14.5973 23.3795 15.4941 25.5575 16.6156 27.6682C15.8064 29.8678 14.9297 31.8428 14.3449 33.9752C7.72329 32.2882 4.08785 29.9516 3.99897 28.0209ZM17.4122 49.9382C15.6618 48.9945 15.0578 44.5267 16.5876 38.1969C18.6527 38.5572 20.9424 38.8502 23.3893 38.8514C24.668 40.6704 26.1712 42.4222 27.6742 44.174C23.2271 48.931 19.3874 50.8146 17.4122 49.9382ZM43.0944 49.0983C41.4327 50.0851 37.2581 48.3994 32.5011 43.9519C33.9612 42.2914 35.1294 40.4737 36.5223 38.5886C38.9019 38.3653 40.9899 37.9848 43.3023 37.537C45.1177 43.5994 44.9807 48.0442 43.0944 49.0983ZM55.3633 26.3413C55.4522 28.272 51.8813 31.0537 45.5945 32.9362C44.7649 30.9827 43.8681 28.8047 42.7467 26.694C43.5559 24.4944 44.4326 22.5194 45.0173 20.387C51.639 22.074 55.2746 24.4105 55.3633 26.3413Z" fill="white"/>
</svg>
