<svg width="63" height="50" viewBox="0 0 63 50" fill="none" xmlns="http://www.w3.org/2000/svg">
<path d="M59.5345 0.900853L42.2923 11.8369C42.5747 13.7071 42.5231 15.6597 42.0853 17.616C41.1369 21.8535 38.5598 25.3061 35.1604 27.4622C31.761 29.6183 27.5392 30.4779 23.3017 29.5296C21.3454 29.0918 19.5569 28.3062 17.9856 27.2535L0.743371 38.1895C5.45439 43.2992 11.714 47.0776 19.0092 48.7103C28.5437 50.8441 38.0419 48.9124 45.6885 44.0612C53.3363 39.212 59.1323 31.4431 61.2661 21.9086C62.8986 14.6135 62.1487 7.34048 59.5345 0.900853Z" fill="url(#paint0_linear_5035_1740)"/>
<defs>
<linearGradient id="paint0_linear_5035_1740" x1="38.2438" y1="32.3239" x2="30.1466" y2="19.5574" gradientUnits="userSpaceOnUse">
<stop stop-color="#843561" stop-opacity="0"/>
<stop offset="1" stop-color="#3A2F4D"/>
</linearGradient>
</defs>
</svg>
