<svg width="44" height="39" viewBox="0 0 44 39" fill="none" xmlns="http://www.w3.org/2000/svg">
<path d="M42.4044 18.8015L11.9286 38.1287C11.6796 37.3326 11.201 36.5704 10.5079 35.9512C9.55993 35.1097 7.79425 35.0591 6.54312 35.1522C6.27112 35.171 6.06766 34.9859 6.01831 34.7614C6.00106 34.6894 6.00001 34.6145 6.01523 34.5421C6.03045 34.4696 6.06156 34.4015 6.10631 34.3425C6.10904 34.3431 6.10965 34.3404 6.10965 34.3404C6.20732 34.2069 6.2982 34.0685 6.38193 33.9258L6.49625 33.7206C6.5002 33.7158 6.50081 33.7131 6.502 33.7077C6.61723 33.4858 6.71337 33.2596 6.79178 33.0236C6.81756 32.9468 6.84123 32.8667 6.86414 32.7892C6.90021 32.6597 6.93082 32.529 6.95584 32.397C7.13637 31.4524 7.02593 30.4753 6.63913 29.5949C6.54172 29.3718 6.42708 29.1566 6.29625 28.9514C6.16638 28.7454 6.02062 28.55 5.86031 28.3668C5.12181 27.5181 4.12546 26.9818 3.06657 26.8018C2.98671 26.7896 2.90412 26.7769 2.82368 26.7673C2.57683 26.7377 2.32848 26.7276 2.08131 26.7379C2.07585 26.7366 2.07313 26.736 2.06706 26.7375L1.83277 26.7535C1.74867 26.7603 1.66668 26.7704 1.58408 26.7833C1.50483 26.794 1.42481 26.8075 1.34433 26.8237C1.34161 26.8231 1.34161 26.8231 1.33827 26.8252C1.26587 26.8406 1.19095 26.8397 1.11894 26.8226C1.04693 26.8055 0.979617 26.7726 0.921879 26.7263C0.739756 26.5859 0.659089 26.3228 0.792044 26.0849C1.40958 24.9928 2.11575 23.3767 1.75862 22.1606C1.4943 21.267 1.01173 20.5096 0.394968 19.9445L30.8687 0.614149C32.2421 -0.254686 34.0592 0.151981 34.9286 1.52274L36.5726 4.1148L41.6689 12.1499L43.313 14.7419C44.1823 16.1124 43.7757 17.9293 42.4044 18.8015Z" fill="url(#paint0_linear_5035_1742)"/>
<defs>
<linearGradient id="paint0_linear_5035_1742" x1="1.61294" y1="14.5023" x2="42.215" y2="23.5889" gradientUnits="userSpaceOnUse">
<stop stop-color="#FFCE47"/>
<stop offset="1" stop-color="#FF9356"/>
</linearGradient>
</defs>
</svg>
