<svg width="42" height="31" viewBox="0 0 42 31" fill="none" xmlns="http://www.w3.org/2000/svg">
<path d="M41.6689 8.1496L6.01829 30.7612C6.00105 30.6893 6 30.6144 6.01522 30.5419C6.03044 30.4695 6.06155 30.4013 6.1063 30.3424C6.10902 30.343 6.10963 30.3403 6.10963 30.3403C6.20816 30.2058 6.71655 29.2573 6.79163 29.0235C6.82074 28.9445 6.84365 28.8671 6.86398 28.7891C7.15249 27.7544 7.09206 26.6246 6.63912 25.5948C6.5417 25.3717 6.42706 25.1565 6.29623 24.9512C6.16636 24.7453 6.02061 24.5499 5.8603 24.3666C5.12179 23.5179 4.12545 22.9817 3.06656 22.8017C2.9873 22.7868 2.90744 22.7746 2.82366 22.7672C2.57757 22.7353 2.32913 22.7254 2.08129 22.7377C2.07584 22.7365 2.07311 22.7359 2.06705 22.7374C1.98962 22.74 1.42497 22.8072 1.34435 22.8234C1.34162 22.8228 1.34162 22.8228 1.33828 22.8249C1.26589 22.8403 1.19097 22.8394 1.11896 22.8223C1.04694 22.8052 0.979633 22.7723 0.921895 22.726L36.5726 0.114358L41.6689 8.1496Z" fill="url(#paint0_linear_5035_1743)"/>
<defs>
<linearGradient id="paint0_linear_5035_1743" x1="26.0811" y1="22.9834" x2="14.4374" y2="4.62536" gradientUnits="userSpaceOnUse">
<stop stop-color="#FFCE47"/>
<stop offset="1" stop-color="#FF9356"/>
</linearGradient>
</defs>
</svg>
