<svg width="30" height="22" viewBox="0 0 30 22" fill="none" xmlns="http://www.w3.org/2000/svg">
<path d="M11.0246 13.9878L29.5089 2.26405C29.969 1.97221 30.1506 1.37013 29.889 0.892042C29.822 0.769009 29.7304 0.661048 29.62 0.574847C29.5096 0.488646 29.3826 0.426042 29.247 0.390914C29.1113 0.355787 28.97 0.348884 28.8316 0.370634C28.6932 0.392384 28.5607 0.442322 28.4424 0.517356L9.97177 12.2326C8.76241 12.9996 7.27197 13.2342 5.90732 12.7996C4.64505 12.3978 3.20533 12.5875 2.04354 13.4713C0.397212 14.7236 -0.0973444 17.0304 0.887549 18.8494C2.07002 21.0333 4.82945 21.726 6.89077 20.4186C7.97035 19.7339 8.6348 18.6422 8.81177 17.4704C9.02705 16.0425 9.80521 14.7612 11.0246 13.9878Z" fill="url(#paint0_linear_5035_1747)"/>
<defs>
<linearGradient id="paint0_linear_5035_1747" x1="17.5683" y1="13.2857" x2="14.0287" y2="7.70503" gradientUnits="userSpaceOnUse">
<stop stop-color="#2F73A0"/>
<stop offset="1" stop-color="#174461"/>
</linearGradient>
</defs>
</svg>
